# Short box  center (-0.15, 0, -1.1), size 0.3 x 0.6 x 0.3
# X: [-0.30, 0.00]  Y: [0.00, 0.60]  Z: [-1.25, -0.95]
v -0.30  0.00 -0.95
v  0.00  0.00 -0.95
v  0.00  0.00 -1.25
v -0.30  0.00 -1.25
v -0.30  0.60 -0.95
v  0.00  0.60 -0.95
v  0.00  0.60 -1.25
v -0.30  0.60 -1.25
vn  0.0  1.0  0.0
vn  0.0 -1.0  0.0
vn  0.0  0.0  1.0
vn  0.0  0.0 -1.0
vn -1.0  0.0  0.0
vn  1.0  0.0  0.0
vt 0.0 0.0
vt 1.0 0.0
vt 1.0 1.0
vt 0.0 1.0
# Top (+Y)
f 5/1/1 6/2/1 7/3/1
f 5/1/1 7/3/1 8/4/1
# Bottom (-Y)
f 1/1/2 3/3/2 2/2/2
f 1/1/2 4/4/2 3/3/2
# Front (+Z)
f 1/1/3 2/2/3 6/3/3
f 1/1/3 6/3/3 5/4/3
# Back (-Z)
f 3/1/4 4/2/4 8/3/4
f 3/1/4 8/3/4 7/4/4
# Left (-X)
f 4/1/5 1/2/5 5/3/5
f 4/1/5 5/3/5 8/4/5
# Right (+X)
f 2/1/6 3/2/6 7/3/6
f 2/1/6 7/3/6 6/4/6
